Millers.Crossing.1990.720p.BRRip.x264.aac.mp4-anoXmous

Format                           : MPEG-4
Format profile                   : Base Media
Codec ID                         : isom
File size                        : 700 MiB
Duration                         : 1h 54mn
Overall bit rate mode            : Variable
Overall bit rate                 : 851 Kbps


Video
ID                               : 1
Format                           : AVC
Format/Info                      : Advanced Video Codec
Format profile                   : High@L4.1
Format settings, CABAC           : Yes
Format settings, ReFrames        : 4 frames
Codec ID                         : avc1
Codec ID/Info                    : Advanced Video Coding
Duration                         : 1h 54mn
Bit rate                         : 660 Kbps
Maximum bit rate                 : 7 879 Kbps
Width                            : 1 280 pixels
Height                           : 688 pixels
Display aspect ratio             : 16:9
Original display aspect ratio    : 1.850
Frame rate mode                  : Constant
Frame rate                       : 23.976 fps
Color space                      : YUV
Chroma subsampling               : 4:2:0
Bit depth                        : 8 bits
Scan type                        : Progressive
Bits/(Pixel*Frame)               : 0.031
Stream size                      : 542 MiB (77%)
Writing library                  : x264 core 119 r2106 07efeb4

Audio
ID                               : 2
Format                           : AAC
Format/Info                      : Advanced Audio Codec
Format profile                   : LC
Codec ID                         : 40
Duration                         : 1h 54mn
Bit rate mode                    : Variable
Bit rate                         : 188 Kbps
Maximum bit rate                 : 289 Kbps
Channel(s)                       : 6 channels
Channel positions                : Front: L C R, Side: L R, LFE
Sampling rate                    : 48.0 KHz
Compression mode                 : Lossy
Stream size                      : 154 MiB (22%)
 
http://www.imdb.com/title/tt0100150/

+++++++This 1 should work very fine with PSP and XBOX :)+++++++++
						